<svg width="15" height="15" viewBox="0 0 15 15" fill="none" xmlns="http://www.w3.org/2000/svg">
<path d="M7.5 1.25C4.1125 1.25 1.25 4.1125 1.25 7.5C1.25 10.8875 4.1125 13.75 7.5 13.75C10.8875 13.75 13.75 10.8875 13.75 7.5C13.75 4.1125 10.8875 1.25 7.5 1.25ZM7.5 12.5C4.7875 12.5 2.5 10.2125 2.5 7.5C2.5 4.7875 4.7875 2.5 7.5 2.5C10.2125 2.5 12.5 4.7875 12.5 7.5C12.5 10.2125 10.2125 12.5 7.5 12.5Z" fill="white"/>
<path d="M7.5 5.6251C8.11875 5.6251 8.65625 5.7876 8.93125 6.06885L9.8125 5.1876C9.1125 4.4876 8.05625 4.38135 7.49375 4.38135C5.76875 4.38135 4.36875 5.78135 4.36875 7.50635C4.36875 9.23135 5.76875 10.6313 7.49375 10.6313C8.05625 10.6313 9.10625 10.5251 9.8125 9.8251L8.93125 8.9376C8.65625 9.2126 8.11875 9.38135 7.5 9.38135C6.48125 9.38135 5.625 8.5251 5.625 7.50635C5.625 6.4876 6.48125 5.63135 7.5 5.63135V5.6251Z" fill="white"/>
</svg>
