<svg width="77" height="77" viewBox="0 0 77 77" fill="none" xmlns="http://www.w3.org/2000/svg">
<path d="M28.875 26.4688H33.6875V40.9062H28.875V26.4688ZM16.8438 31.2812H21.6562V40.9062H16.8438V31.2812ZM4.8125 16.8438H9.625V40.9062H4.8125V16.8438Z" fill="#C68313"/>
<path d="M72.1875 68.7851L54.0155 50.6131C57.9864 45.8673 60.1603 39.8754 60.1563 33.6875C60.1563 19.0936 48.2814 7.21875 33.6875 7.21875C27.9053 7.21875 22.4142 9.0475 17.8039 12.5125L20.6914 16.3625C24.434 13.538 28.9987 12.0167 33.6875 12.0312C45.6297 12.0312 55.3438 21.7453 55.3438 33.6875C55.3438 45.6297 45.6297 55.3438 33.6875 55.3438C30.3232 55.3569 27.0027 54.58 23.9936 53.0754C20.9844 51.5708 18.3706 49.3806 16.3625 46.6812L12.5125 49.5736C14.968 52.8711 18.1631 55.5465 21.8408 57.3845C25.5185 59.2225 29.5761 60.1719 33.6875 60.1562C40.1194 60.1562 46.0219 57.8462 50.6131 54.0155L68.7851 72.1875L72.1875 68.7851Z" fill="#C68313"/>
</svg>
