<svg width="106" height="106" viewBox="0 0 106 106" fill="none" xmlns="http://www.w3.org/2000/svg">
<path d="M26.2901 47.8303H14.0972V51.4486H22.7462C22.3167 56.5207 18.0954 58.685 14.1137 58.685C11.5504 58.685 9.09203 57.6667 7.27948 55.8541C5.46692 54.0416 4.44864 51.5832 4.44864 49.0199C4.44864 46.4565 5.46692 43.9982 7.27948 42.1856C9.09203 40.3731 11.5504 39.3548 14.1137 39.3548C16.5434 39.351 18.8798 40.2897 20.6315 41.9735L23.1675 39.3465C20.7174 36.979 17.4295 35.6781 14.0229 35.7283C12.2774 35.7408 10.5515 36.097 8.94363 36.7764C7.3358 37.4559 5.87755 38.4455 4.65213 39.6885C3.42672 40.9316 2.45814 42.4038 1.8017 44.0212C1.14527 45.6386 0.813822 47.3694 0.826298 49.1149C0.838773 50.8604 1.19492 52.5863 1.87441 54.1941C2.5539 55.802 3.54342 57.2602 4.78648 58.4856C6.02954 59.711 7.50178 60.6796 9.11917 61.336C10.7365 61.9925 12.4674 62.3239 14.2129 62.3115C21.3254 62.3115 26.5379 57.4376 26.5379 50.226C26.5535 49.4216 26.4787 48.618 26.3149 47.8303H26.2901ZM36.2773 45.2117C34.5908 45.2182 32.9439 45.7239 31.5443 46.665C30.1448 47.606 29.0551 48.9404 28.4127 50.4998C27.7703 52.0592 27.6039 53.7739 27.9346 55.4277C28.2652 57.0816 29.078 58.6005 30.2706 59.7931C31.4632 60.9857 32.9821 61.7985 34.6359 62.1291C36.2898 62.4598 38.0045 62.2934 39.5639 61.651C41.1233 61.0086 42.4576 59.9189 43.3987 58.5193C44.3398 57.1198 44.8455 55.4729 44.852 53.7864C44.8699 52.6554 44.6603 51.5324 44.2357 50.484C43.8111 49.4356 43.1801 48.4832 42.3803 47.6834C41.5805 46.8836 40.6281 46.2526 39.5797 45.828C38.5313 45.4034 37.4083 45.1938 36.2773 45.2117ZM36.3269 48.5655C37.3665 48.5043 38.4005 48.7568 39.2948 49.2904C40.1891 49.8239 40.9024 50.6139 41.3423 51.5578C41.7821 52.5017 41.9282 53.5561 41.7616 54.584C41.595 55.612 41.1233 56.5661 40.4078 57.3228C39.6922 58.0794 38.7659 58.6035 37.7488 58.8273C36.7317 59.051 35.6709 58.9639 34.7039 58.5774C33.737 58.1909 32.9084 57.5227 32.3258 56.6596C31.7432 55.7964 31.4334 54.7782 31.4365 53.7368C31.4019 53.0722 31.5025 52.4075 31.7324 51.7829C31.9623 51.1584 32.3166 50.587 32.7738 50.1035C33.2311 49.6199 33.7818 49.2343 34.3926 48.9699C35.0033 48.7056 35.6614 48.568 36.3269 48.5655ZM54.9632 45.2117C53.2763 45.2166 51.6286 45.7209 50.2279 46.661C48.8272 47.601 47.7363 48.9348 47.0926 50.4941C46.449 52.0534 46.2814 53.7683 46.6111 55.4227C46.9408 57.0771 47.753 58.5968 48.9453 59.7902C50.1375 60.9836 51.6564 61.7972 53.3105 62.1285C54.9646 62.4598 56.6797 62.294 58.2396 61.6518C59.7995 61.0096 61.1343 59.92 62.0757 58.5202C63.0172 57.1204 63.523 55.4732 63.5296 53.7864C63.5474 52.6561 63.3381 51.5338 62.914 50.4859C62.4899 49.4381 61.8597 48.4861 61.0608 47.6864C60.2618 46.8867 59.3104 46.2556 58.263 45.8305C57.2156 45.4054 56.0935 45.195 54.9632 45.2117ZM55.0127 48.5655C56.0523 48.5043 57.0863 48.7568 57.9806 49.2904C58.8749 49.8239 59.5882 50.6139 60.0281 51.5578C60.468 52.5017 60.6141 53.5561 60.4474 54.584C60.2808 55.612 59.8091 56.5661 59.0936 57.3228C58.3781 58.0794 57.4517 58.6035 56.4346 58.8273C55.4176 59.051 54.3568 58.9639 53.3898 58.5774C52.4228 58.1909 51.5943 57.5227 51.0116 56.6596C50.429 55.7964 50.1192 54.7782 50.1224 53.7368C50.0877 53.0722 50.1883 52.4075 50.4182 51.7829C50.6481 51.1584 51.0024 50.587 51.4597 50.1035C51.917 49.6199 52.4677 49.2343 53.0784 48.9699C53.6892 48.7056 54.3472 48.568 55.0127 48.5655ZM73.2773 45.2199C68.6843 45.2199 65.0743 49.2429 65.0743 53.7533C65.0405 55.9574 65.8717 58.087 67.3898 59.6853C68.9078 61.2837 70.9918 62.2235 73.1947 62.3032C74.0836 62.3516 74.9714 62.189 75.7855 61.8286C76.5995 61.4683 77.3167 60.9204 77.8785 60.2297V61.8819C77.8785 64.831 76.0859 66.5905 73.3847 66.5905C72.4426 66.5827 71.5243 66.294 70.7473 65.7613C69.9702 65.2285 69.3699 64.476 69.023 63.6001L65.7187 64.9714C66.3578 66.476 67.4289 67.7572 68.7965 68.6527C70.164 69.5482 71.7666 70.0179 73.4012 70.0022C77.9694 70.0022 81.4472 67.1275 81.4472 61.0971V45.7321H77.8868V47.1777C77.3029 46.5411 76.5894 46.0369 75.7942 45.6992C74.9991 45.3615 74.1409 45.1981 73.2773 45.2199ZM73.6077 48.5655C75.8629 48.5655 78.1676 50.4903 78.1676 53.7698C78.1676 57.0493 75.8629 58.9493 73.5581 58.9493C72.9064 58.9328 72.2646 58.7851 71.6712 58.5153C71.0777 58.2454 70.5446 57.8589 70.1036 57.3786C69.6627 56.8984 69.323 56.3343 69.1047 55.72C68.8864 55.1056 68.794 54.4537 68.833 53.8029C68.833 50.4986 71.1956 48.5655 73.6077 48.5655ZM97.3987 45.1952C93.0701 45.1952 89.4271 48.6399 89.4271 53.7285C89.3843 54.85 89.5704 55.9684 89.9742 57.0155C90.378 58.0626 90.9909 59.0165 91.7755 59.8189C92.5601 60.6213 93.5 61.2554 94.5378 61.6825C95.5756 62.1097 96.6896 62.3208 97.8117 62.3032C99.2191 62.306 100.606 61.9659 101.852 61.3125C103.099 60.659 104.167 59.7119 104.966 58.5528L102.008 56.5867C101.58 57.3137 100.967 57.9145 100.231 58.3279C99.4956 58.7414 98.6637 58.953 97.82 58.9411C96.9436 58.9773 96.0763 58.7504 95.3299 58.2896C94.5836 57.8288 93.9921 57.1552 93.6318 56.3554L105.089 51.6055L104.495 50.2094C103.949 48.7592 102.979 47.5065 101.712 46.6138C100.446 45.7212 98.9399 45.2298 97.3904 45.2034L97.3987 45.1952ZM97.5474 48.4995C98.1937 48.4716 98.8346 48.6285 99.395 48.9519C99.9553 49.2752 100.412 49.7515 100.711 50.3251L93.0618 53.522C93.0239 52.8971 93.11 52.2709 93.3154 51.6795C93.5207 51.088 93.8411 50.5431 94.2582 50.0762C94.6752 49.6092 95.1805 49.2295 95.7451 48.9589C96.3096 48.6883 96.9222 48.5321 97.5474 48.4995ZM83.9667 61.7993H87.7336V36.6122H83.9667V61.7993Z" fill="black" fill-opacity="0.7"/>
</svg>
