<svg width="36" height="36" viewBox="0 0 36 36" fill="none" xmlns="http://www.w3.org/2000/svg">
<rect width="35.7143" height="35.7143" rx="17.8571" fill="#C68313"/>
<g clip-path="url(#clip0_23_82)">
<path d="M26.4249 17.9141C26.4249 13.1505 22.5871 9.28906 17.8535 9.28906C13.1178 9.29013 9.27991 13.1505 9.27991 17.9151C9.27991 22.2191 12.4149 25.7869 16.5121 26.4341V20.4073H14.3371V17.9151H16.5142V16.0133C16.5142 13.8523 17.7946 12.6587 19.7521 12.6587C20.6906 12.6587 21.671 12.8269 21.671 12.8269V14.9483H20.5899C19.526 14.9483 19.1938 15.6137 19.1938 16.2962V17.9141H21.5703L21.191 20.4062H19.1928V26.433C23.2899 25.7858 26.4249 22.218 26.4249 17.9141Z" fill="white"/>
</g>
<defs>
<clipPath id="clip0_23_82">
<rect width="17.1429" height="17.1429" fill="white" transform="translate(9.2876 9.28711)"/>
</clipPath>
</defs>
</svg>
