<svg width="84" height="84" viewBox="0 0 84 84" fill="none" xmlns="http://www.w3.org/2000/svg">
<path d="M41.9454 12.5579C44.4261 12.5579 46.8051 13.5434 48.5592 15.2975C50.3134 17.0516 51.2988 19.4306 51.2988 21.9113C51.2988 24.392 50.3134 26.7711 48.5592 28.5252C46.8051 30.2793 44.4261 31.2647 41.9454 31.2647C39.4642 31.2647 37.0846 30.279 35.3301 28.5245C33.5756 26.7701 32.5899 24.3904 32.5899 21.9092C32.5899 19.428 33.5756 17.0484 35.3301 15.2939C37.0846 13.5394 39.4642 12.5579 41.9454 12.5579ZM41.9454 16.7537C41.2686 16.7537 40.5985 16.887 39.9733 17.146C39.348 17.405 38.7799 17.7846 38.3014 18.2631C37.8229 18.7416 37.4433 19.3098 37.1843 19.935C36.9253 20.5602 36.792 21.2304 36.792 21.9071C36.792 22.5839 36.9253 23.254 37.1843 23.8792C37.4433 24.5045 37.8229 25.0726 38.3014 25.5511C38.7799 26.0297 39.348 26.4092 39.9733 26.6682C40.5985 26.9272 41.2686 27.0605 41.9454 27.0605C43.3127 27.0605 44.624 26.5173 45.5909 25.5505C46.5577 24.5837 47.1009 23.2723 47.1009 21.905C47.1009 20.5377 46.5577 19.2264 45.5909 18.2595C44.624 17.2927 43.3127 16.7495 41.9454 16.7495M12.6672 48.2999C12.6672 48.8569 12.446 49.391 12.0521 49.7848C11.6583 50.1787 11.1242 50.3999 10.5672 50.3999C10.0102 50.3999 9.4761 50.1787 9.08227 49.7848C8.68845 49.391 8.4672 48.8569 8.4672 48.2999V37.8587C8.46734 36.83 8.84501 35.8371 9.5286 35.0683C10.2122 34.2996 11.1541 33.8085 12.1758 33.6881L12.6672 33.6587H24.2466C23.6371 34.7139 23.2645 35.8891 23.1546 37.1027L23.121 37.8587H12.663L12.6672 48.2999ZM73.458 50.3999C74.015 50.3999 74.5491 50.1787 74.9429 49.7848C75.3367 49.391 75.558 48.8569 75.558 48.2999V37.8587L75.5286 37.3715C75.4092 36.3491 74.9185 35.4061 74.1496 34.7217C73.3808 34.0372 72.3874 33.659 71.358 33.6587H59.6652C60.2784 34.7213 60.6732 35.9393 60.7656 37.2329L60.7866 37.8629H71.358V48.2999C71.358 48.8569 71.5792 49.391 71.9731 49.7848C72.3669 50.1787 72.901 50.3999 73.458 50.3999ZM52.3908 33.6587C53.4202 33.659 54.4136 34.0372 55.1824 34.7217C55.9513 35.4061 56.442 36.3491 56.5614 37.3715L56.5866 37.8587V48.2999C56.5866 48.8569 56.3653 49.391 55.9715 49.7848C55.5777 50.1787 55.0436 50.3999 54.4866 50.3999C53.9296 50.3999 53.3955 50.1787 53.0017 49.7848C52.6078 49.391 52.3866 48.8569 52.3866 48.2999V37.8587H31.5252V48.2999C31.5252 48.8569 31.3039 49.391 30.9101 49.7848C30.5163 50.1787 29.9822 50.3999 29.4252 50.3999C28.8682 50.3999 28.3341 50.1787 27.9403 49.7848C27.5464 49.391 27.3252 48.8569 27.3252 48.2999V37.8587C27.3253 36.83 27.703 35.8371 28.3866 35.0683C29.0702 34.2996 30.0121 33.8085 31.0338 33.6881L31.5252 33.6587H52.3908ZM70.9296 23.2301C70.9296 21.0986 70.0829 19.0545 68.5757 17.5473C67.0685 16.0401 65.0244 15.1934 62.8929 15.1934C60.7614 15.1934 58.7173 16.0401 57.2101 17.5473C55.7029 19.0545 54.8562 21.0986 54.8562 23.2301C54.8562 25.3616 55.7029 27.4057 57.2101 28.9129C58.7173 30.4201 60.7614 31.2668 62.8929 31.2668C65.0244 31.2668 67.0685 30.4201 68.5757 28.9129C70.0829 27.4057 70.9296 25.3616 70.9296 23.2301ZM59.0562 23.2301C59.0562 22.2126 59.4604 21.2367 60.1799 20.5172C60.8995 19.7976 61.8753 19.3934 62.8929 19.3934C63.9105 19.3934 64.8863 19.7976 65.6059 20.5172C66.3254 21.2367 66.7296 22.2126 66.7296 23.2301C66.7296 24.2477 66.3254 25.2235 65.6059 25.9431C64.8863 26.6626 63.9105 27.0668 62.8929 27.0668C61.8753 27.0668 60.8995 26.6626 60.1799 25.9431C59.4604 25.2235 59.0562 24.2477 59.0562 23.2301ZM21.0672 15.1913C23.1987 15.1913 25.2428 16.038 26.75 17.5452C28.2572 19.0524 29.1039 21.0965 29.1039 23.228C29.1039 25.3595 28.2572 27.4036 26.75 28.9108C25.2428 30.418 23.1987 31.2647 21.0672 31.2647C18.9357 31.2647 16.8916 30.418 15.3844 28.9108C13.8772 27.4036 13.0305 25.3595 13.0305 23.228C13.0305 21.0965 13.8772 19.0524 15.3844 17.5452C16.8916 16.038 18.9357 15.1913 21.0672 15.1913ZM21.0672 19.3913C20.0496 19.3913 19.0738 19.7955 18.3542 20.5151C17.6347 21.2346 17.2305 22.2105 17.2305 23.228C17.2305 24.2456 17.6347 25.2214 18.3542 25.941C19.0738 26.6605 20.0496 27.0647 21.0672 27.0647C22.0848 27.0647 23.0606 26.6605 23.7802 25.941C24.4997 25.2214 24.9039 24.2456 24.9039 23.228C24.9039 22.2105 24.4997 21.2346 23.7802 20.5151C23.0606 19.7955 22.0848 19.3913 21.0672 19.3913ZM10.5 54.5999C9.94304 54.5999 9.4089 54.8212 9.01508 55.215C8.62125 55.6088 8.4 56.143 8.4 56.6999V60.8999C8.4 63.6847 9.50625 66.3554 11.4754 68.3245C13.4445 70.2937 16.1152 71.3999 18.9 71.3999H65.1C67.8848 71.3999 70.5555 70.2937 72.5246 68.3245C74.4937 66.3554 75.6 63.6847 75.6 60.8999V56.6999C75.6 56.143 75.3788 55.6088 74.9849 55.215C74.5911 54.8212 74.057 54.5999 73.5 54.5999H10.5ZM12.6 60.8999V58.7999H71.4V60.8999C71.4 62.5708 70.7362 64.1732 69.5548 65.3547C68.3733 66.5362 66.7709 67.1999 65.1 67.1999H18.9C17.2291 67.1999 15.6267 66.5362 14.4452 65.3547C13.2637 64.1732 12.6 62.5708 12.6 60.8999Z" fill="#C68313"/>
</svg>
