<svg width="24" height="24" viewBox="0 0 24 24" fill="none" xmlns="http://www.w3.org/2000/svg">
<path d="M16.5051 3.24258C16.5051 3.00805 16.5983 2.78312 16.7641 2.61728C16.9299 2.45144 17.1549 2.35828 17.3894 2.35828H20.3371C20.5716 2.35828 20.7965 2.45144 20.9624 2.61728C21.1282 2.78312 21.2214 3.00805 21.2214 3.24258V6.19025C21.2214 6.42478 21.1282 6.64971 20.9624 6.81555C20.7965 6.98139 20.5716 7.07456 20.3371 7.07456C20.1025 7.07456 19.8776 6.98139 19.7118 6.81555C19.5459 6.64971 19.4528 6.42478 19.4528 6.19025V5.37669L14.1823 10.6471C14.0165 10.8127 13.7918 10.9058 13.5574 10.9058C13.3231 10.9058 13.0983 10.8127 12.9325 10.6471L10.0202 7.73483L5.04454 12.7105C4.96359 12.7974 4.86596 12.8671 4.75748 12.9154C4.64901 12.9637 4.53191 12.9897 4.41318 12.9918C4.29444 12.9939 4.1765 12.9721 4.06639 12.9276C3.95628 12.8831 3.85625 12.8169 3.77228 12.733C3.68831 12.649 3.62211 12.549 3.57764 12.4388C3.53316 12.3287 3.51132 12.2108 3.51341 12.0921C3.51551 11.9733 3.5415 11.8562 3.58983 11.7478C3.63816 11.6393 3.70785 11.5417 3.79473 11.4607L9.39531 5.86011C9.56112 5.69451 9.78588 5.6015 10.0202 5.6015C10.2546 5.6015 10.4793 5.69451 10.6451 5.86011L13.5574 8.77242L18.203 4.12688H17.3894C17.1549 4.12688 16.9299 4.03371 16.7641 3.86787C16.5983 3.70204 16.5051 3.47711 16.5051 3.24258ZM4.41964 16.5071C4.65417 16.5071 4.87909 16.6003 5.04493 16.7661C5.21077 16.932 5.30394 17.1569 5.30394 17.3914V20.3391C5.30394 20.5736 5.21077 20.7985 5.04493 20.9644C4.87909 21.1302 4.65417 21.2234 4.41964 21.2234C4.1851 21.2234 3.96018 21.1302 3.79434 20.9644C3.6285 20.7985 3.53533 20.5736 3.53533 20.3391V17.3914C3.53533 17.1569 3.6285 16.932 3.79434 16.7661C3.96018 16.6003 4.1851 16.5071 4.41964 16.5071ZM10.0202 13.8542C10.0202 13.6197 9.92705 13.3947 9.76121 13.2289C9.59537 13.0631 9.37045 12.9699 9.13591 12.9699C8.90138 12.9699 8.67646 13.0631 8.51062 13.2289C8.34478 13.3947 8.25161 13.6197 8.25161 13.8542V20.3391C8.25161 20.5736 8.34478 20.7985 8.51062 20.9644C8.67646 21.1302 8.90138 21.2234 9.13591 21.2234C9.37045 21.2234 9.59537 21.1302 9.76121 20.9644C9.92705 20.7985 10.0202 20.5736 10.0202 20.3391V13.8542ZM13.8522 15.328C14.0867 15.328 14.3117 15.4212 14.4775 15.5871C14.6433 15.7529 14.7365 15.9778 14.7365 16.2123V20.3391C14.7365 20.5736 14.6433 20.7985 14.4775 20.9644C14.3117 21.1302 14.0867 21.2234 13.8522 21.2234C13.6177 21.2234 13.3927 21.1302 13.2269 20.9644C13.0611 20.7985 12.9679 20.5736 12.9679 20.3391V16.2123C12.9679 15.9778 13.0611 15.7529 13.2269 15.5871C13.3927 15.4212 13.6177 15.328 13.8522 15.328ZM19.4528 11.4961C19.4528 11.2615 19.3596 11.0366 19.1938 10.8708C19.0279 10.7049 18.803 10.6118 18.5685 10.6118C18.3339 10.6118 18.109 10.7049 17.9432 10.8708C17.7773 11.0366 17.6842 11.2615 17.6842 11.4961V20.3391C17.6842 20.5736 17.7773 20.7985 17.9432 20.9644C18.109 21.1302 18.3339 21.2234 18.5685 21.2234C18.803 21.2234 19.0279 21.1302 19.1938 20.9644C19.3596 20.7985 19.4528 20.5736 19.4528 20.3391V11.4961Z" fill="#C68313"/>
</svg>
