<svg width="194" height="30" viewBox="0 0 194 30" fill="none" xmlns="http://www.w3.org/2000/svg">
<path d="M11.232 23.36C9.69599 23.36 8.24532 23.0614 6.87999 22.464C5.51466 21.8667 4.31999 21.0454 3.29599 20C2.27199 18.9334 1.46132 17.7067 0.863988 16.32C0.287988 14.912 -1.16825e-05 13.408 -1.16825e-05 11.808C-1.16825e-05 10.208 0.287988 8.7147 0.863988 7.32804C1.46132 5.94137 2.27199 4.72537 3.29599 3.68004C4.34132 2.61337 5.55732 1.79204 6.94399 1.21604C8.35199 0.618704 9.86666 0.320038 11.488 0.320038C13.2587 0.320038 14.9013 0.661371 16.416 1.34404C17.9307 2.0267 19.2 2.99737 20.224 4.25604L17.728 6.75204C17.0667 5.81337 16.1813 5.0987 15.072 4.60804C13.9627 4.09604 12.768 3.84004 11.488 3.84004C9.95199 3.84004 8.59732 4.18137 7.42399 4.86404C6.27199 5.52537 5.37599 6.45337 4.73599 7.64804C4.09599 8.84271 3.77599 10.2294 3.77599 11.808C3.77599 13.3867 4.09599 14.784 4.73599 16C5.39732 17.1947 6.28266 18.1334 7.39199 18.816C8.50132 19.4987 9.75999 19.84 11.168 19.84C12.6613 19.84 13.9413 19.5734 15.008 19.04C16.096 18.4854 16.928 17.6747 17.504 16.608C18.08 15.52 18.368 14.1867 18.368 12.608L20.672 14.272H11.104V10.912H22.176V11.424C22.176 14.0907 21.696 16.3094 20.736 18.08C19.7973 19.8507 18.5067 21.1734 16.864 22.048C15.2213 22.9227 13.344 23.36 11.232 23.36ZM25.3587 23.04V7.68004H28.8787V23.04H25.3587ZM28.8787 14.496L27.6627 13.888C27.6627 11.9467 28.0894 10.3787 28.9427 9.18404C29.8174 7.96804 31.1294 7.36004 32.8787 7.36004C33.6467 7.36004 34.3401 7.49871 34.9587 7.77604C35.5774 8.05337 36.1534 8.50137 36.6867 9.12004L34.3827 11.488C34.1054 11.1894 33.7961 10.976 33.4547 10.848C33.1134 10.72 32.7187 10.656 32.2707 10.656C31.2894 10.656 30.4787 10.9654 29.8387 11.584C29.1987 12.2027 28.8787 13.1734 28.8787 14.496ZM44.9612 23.36C43.4679 23.36 42.1132 23.008 40.8972 22.304C39.6812 21.5787 38.7106 20.608 37.9852 19.392C37.2812 18.176 36.9292 16.8214 36.9292 15.328C36.9292 13.8347 37.2812 12.4907 37.9852 11.296C38.7106 10.1014 39.6812 9.15204 40.8972 8.44804C42.1132 7.72271 43.4679 7.36004 44.9612 7.36004C46.4759 7.36004 47.8412 7.71204 49.0572 8.41604C50.2732 9.12004 51.2332 10.08 51.9372 11.296C52.6626 12.4907 53.0252 13.8347 53.0252 15.328C53.0252 16.8214 52.6626 18.176 51.9372 19.392C51.2332 20.608 50.2732 21.5787 49.0572 22.304C47.8412 23.008 46.4759 23.36 44.9612 23.36ZM44.9612 19.968C45.8359 19.968 46.6039 19.776 47.2652 19.392C47.9479 18.9867 48.4706 18.432 48.8332 17.728C49.2172 17.024 49.4092 16.224 49.4092 15.328C49.4092 14.432 49.2172 13.6427 48.8332 12.96C48.4492 12.2774 47.9266 11.744 47.2652 11.36C46.6039 10.9547 45.8359 10.752 44.9612 10.752C44.1079 10.752 43.3399 10.9547 42.6572 11.36C41.9959 11.744 41.4732 12.2774 41.0892 12.96C40.7266 13.6427 40.5452 14.432 40.5452 15.328C40.5452 16.224 40.7266 17.024 41.0892 17.728C41.4732 18.432 41.9959 18.9867 42.6572 19.392C43.3399 19.776 44.1079 19.968 44.9612 19.968ZM60.0575 23.04L53.8815 7.68004H57.5295L61.6895 18.848L60.6015 18.88L64.6655 7.68004H66.7135L70.7775 18.88L69.6895 18.848L73.8495 7.68004H77.4975L71.3215 23.04H69.2735L65.1135 12.416H66.2655L62.1055 23.04H60.0575ZM82.0385 23.04V1.28004H85.5585V23.04H82.0385ZM78.3585 10.88V7.68004H89.2385V10.88H78.3585ZM102.324 23.04V14.176C102.324 13.152 101.994 12.3094 101.332 11.648C100.692 10.9867 99.8602 10.656 98.8362 10.656C98.1536 10.656 97.5456 10.8054 97.0122 11.104C96.4789 11.4027 96.0629 11.8187 95.7642 12.352C95.4656 12.8854 95.3162 13.4934 95.3162 14.176L93.9402 13.408C93.9402 12.2347 94.1962 11.2 94.7082 10.304C95.2202 9.38671 95.9242 8.67204 96.8202 8.16004C97.7376 7.62671 98.7616 7.36004 99.8922 7.36004C101.044 7.36004 102.068 7.61604 102.964 8.12804C103.86 8.64004 104.564 9.3547 105.076 10.272C105.588 11.168 105.844 12.2134 105.844 13.408V23.04H102.324ZM91.7962 23.04V3.8147e-05H95.3162V23.04H91.7962Z" fill="black"/>
<path d="M116.141 23.36C114.371 23.36 112.867 23.04 111.629 22.4C110.392 21.76 109.283 20.8214 108.301 19.584L110.797 17.088C111.416 17.984 112.152 18.688 113.005 19.2C113.859 19.6907 114.947 19.936 116.269 19.936C117.507 19.936 118.488 19.68 119.213 19.168C119.96 18.656 120.333 17.952 120.333 17.056C120.333 16.3094 120.141 15.7014 119.757 15.232C119.373 14.7627 118.861 14.3787 118.221 14.08C117.603 13.76 116.909 13.4827 116.141 13.248C115.395 12.992 114.637 12.7147 113.869 12.416C113.123 12.096 112.429 11.7014 111.789 11.232C111.171 10.7627 110.669 10.1547 110.285 9.40804C109.901 8.66137 109.709 7.71204 109.709 6.56004C109.709 5.23737 110.029 4.11737 110.669 3.20004C111.331 2.26137 112.216 1.5467 113.325 1.05604C114.435 0.565371 115.672 0.320038 117.037 0.320038C118.509 0.320038 119.821 0.608038 120.973 1.18404C122.147 1.76004 123.096 2.49604 123.821 3.39204L121.325 5.88804C120.685 5.1627 120.013 4.62937 119.309 4.28804C118.627 3.92537 117.837 3.74404 116.941 3.74404C115.832 3.74404 114.957 3.96804 114.317 4.41604C113.699 4.86404 113.389 5.49337 113.389 6.30404C113.389 6.98671 113.581 7.54137 113.965 7.96804C114.349 8.37337 114.851 8.72537 115.469 9.02404C116.109 9.30137 116.803 9.56804 117.549 9.82404C118.317 10.08 119.075 10.368 119.821 10.688C120.589 11.008 121.283 11.424 121.901 11.936C122.541 12.4267 123.053 13.0667 123.437 13.856C123.821 14.6454 124.013 15.6374 124.013 16.832C124.013 18.8374 123.299 20.4267 121.869 21.6C120.461 22.7734 118.552 23.36 116.141 23.36ZM135.426 23.36C134.253 23.36 133.208 23.1147 132.29 22.624C131.373 22.112 130.648 21.4187 130.114 20.544C129.602 19.6694 129.346 18.6774 129.346 17.568V13.152C129.346 12.0427 129.613 11.0507 130.146 10.176C130.68 9.30137 131.405 8.61871 132.322 8.12804C133.24 7.61604 134.274 7.36004 135.426 7.36004C136.813 7.36004 138.061 7.72271 139.17 8.44804C140.301 9.15204 141.186 10.112 141.826 11.328C142.488 12.5227 142.818 13.8774 142.818 15.392C142.818 16.8854 142.488 18.24 141.826 19.456C141.186 20.6507 140.301 21.6 139.17 22.304C138.061 23.008 136.813 23.36 135.426 23.36ZM127.202 29.44V7.68004H130.722V11.808L130.114 15.552L130.722 19.264V29.44H127.202ZM134.85 20.032C135.704 20.032 136.45 19.84 137.09 19.456C137.752 19.0507 138.264 18.496 138.626 17.792C139.01 17.088 139.202 16.2774 139.202 15.36C139.202 14.4427 139.01 13.632 138.626 12.928C138.264 12.224 137.752 11.68 137.09 11.296C136.45 10.8907 135.704 10.688 134.85 10.688C133.997 10.688 133.24 10.8907 132.578 11.296C131.917 11.68 131.405 12.224 131.042 12.928C130.68 13.632 130.498 14.4427 130.498 15.36C130.498 16.2774 130.68 17.088 131.042 17.792C131.405 18.496 131.917 19.0507 132.578 19.456C133.24 19.84 133.997 20.032 134.85 20.032ZM152.197 23.36C150.81 23.36 149.552 23.008 148.421 22.304C147.312 21.6 146.426 20.6507 145.765 19.456C145.125 18.24 144.805 16.8854 144.805 15.392C144.805 13.8774 145.125 12.5227 145.765 11.328C146.426 10.112 147.312 9.15204 148.421 8.44804C149.552 7.72271 150.81 7.36004 152.197 7.36004C153.37 7.36004 154.405 7.61604 155.301 8.12804C156.218 8.61871 156.944 9.30137 157.477 10.176C158.01 11.0507 158.277 12.0427 158.277 13.152V17.568C158.277 18.6774 158.01 19.6694 157.477 20.544C156.965 21.4187 156.25 22.112 155.333 22.624C154.416 23.1147 153.37 23.36 152.197 23.36ZM152.773 20.032C154.074 20.032 155.12 19.5947 155.909 18.72C156.72 17.8454 157.125 16.7254 157.125 15.36C157.125 14.4427 156.944 13.632 156.581 12.928C156.218 12.224 155.706 11.68 155.045 11.296C154.405 10.8907 153.648 10.688 152.773 10.688C151.92 10.688 151.162 10.8907 150.501 11.296C149.861 11.68 149.349 12.224 148.965 12.928C148.602 13.632 148.421 14.4427 148.421 15.36C148.421 16.2774 148.602 17.088 148.965 17.792C149.349 18.496 149.861 19.0507 150.501 19.456C151.162 19.84 151.92 20.032 152.773 20.032ZM156.901 23.04V18.912L157.509 15.168L156.901 11.456V7.68004H160.421V23.04H156.901ZM171.399 23.36C169.885 23.36 168.509 23.008 167.271 22.304C166.055 21.6 165.095 20.64 164.391 19.424C163.687 18.208 163.335 16.8534 163.335 15.36C163.335 13.8454 163.687 12.4907 164.391 11.296C165.095 10.08 166.055 9.12004 167.271 8.41604C168.509 7.71204 169.885 7.36004 171.399 7.36004C172.594 7.36004 173.703 7.59471 174.727 8.06404C175.773 8.51204 176.658 9.16271 177.383 10.016L175.079 12.352C174.631 11.8187 174.087 11.424 173.447 11.168C172.829 10.8907 172.146 10.752 171.399 10.752C170.525 10.752 169.746 10.9547 169.063 11.36C168.402 11.744 167.879 12.2774 167.495 12.96C167.133 13.6427 166.951 14.4427 166.951 15.36C166.951 16.256 167.133 17.056 167.495 17.76C167.879 18.4427 168.402 18.9867 169.063 19.392C169.746 19.776 170.525 19.968 171.399 19.968C172.146 19.968 172.829 19.84 173.447 19.584C174.087 19.3067 174.631 18.9014 175.079 18.368L177.383 20.704C176.658 21.5574 175.773 22.2187 174.727 22.688C173.703 23.136 172.594 23.36 171.399 23.36ZM186.745 23.36C185.209 23.36 183.822 23.0187 182.585 22.336C181.369 21.632 180.398 20.672 179.673 19.456C178.969 18.24 178.617 16.8747 178.617 15.36C178.617 13.8454 178.969 12.4907 179.673 11.296C180.377 10.08 181.326 9.12004 182.521 8.41604C183.737 7.71204 185.081 7.36004 186.553 7.36004C187.982 7.36004 189.241 7.69071 190.329 8.35204C191.438 9.01337 192.302 9.92004 192.921 11.072C193.561 12.224 193.881 13.536 193.881 15.008C193.881 15.264 193.859 15.5307 193.817 15.808C193.795 16.064 193.753 16.352 193.689 16.672H181.081V13.792H191.865L190.553 14.944C190.51 14.0054 190.329 13.216 190.009 12.576C189.689 11.936 189.23 11.4454 188.633 11.104C188.057 10.7627 187.342 10.592 186.489 10.592C185.593 10.592 184.814 10.784 184.153 11.168C183.491 11.552 182.979 12.096 182.617 12.8C182.254 13.4827 182.073 14.304 182.073 15.264C182.073 16.224 182.265 17.0667 182.649 17.792C183.033 18.5174 183.577 19.0827 184.281 19.488C184.985 19.872 185.795 20.064 186.713 20.064C187.502 20.064 188.227 19.9254 188.889 19.648C189.571 19.3707 190.147 18.9654 190.617 18.432L192.857 20.704C192.11 21.5787 191.203 22.24 190.137 22.688C189.07 23.136 187.939 23.36 186.745 23.36Z" fill="#C68313"/>
</svg>
