<svg width="91" height="91" viewBox="0 0 91 91" fill="none" xmlns="http://www.w3.org/2000/svg">
<path d="M19.5006 53.0834C16.6556 48.4243 15.1556 43.0686 15.1667 37.6096C15.1667 21.0248 28.7485 7.58337 45.5001 7.58337C62.2516 7.58337 75.8334 21.0248 75.8334 37.6096C75.8446 43.0686 74.3446 48.4243 71.4995 53.0834M56.8751 72.0417L56.3821 74.4949C55.8513 77.1756 55.5821 78.5141 54.9792 79.5757C54.0502 81.2121 52.5461 82.4446 50.7591 83.0338C49.6026 83.4167 48.2301 83.4167 45.5001 83.4167C42.7701 83.4167 41.3975 83.4167 40.241 83.0375C38.4534 82.4474 36.9492 81.2135 36.0209 79.5757C35.418 78.5141 35.1488 77.1756 34.618 74.4949L34.1251 72.0417M45.5001 60.6667V41.7084M27.9939 64.83C27.6451 63.7835 27.4707 63.2564 27.4896 62.8317C27.5111 62.3926 27.6593 61.9692 27.9164 61.6125C28.1734 61.2559 28.5283 60.9814 28.9381 60.8222C29.3324 60.6667 29.886 60.6667 30.9856 60.6667H60.0146C61.1179 60.6667 61.6677 60.6667 62.0621 60.8184C62.4724 60.9778 62.8277 61.2529 63.0848 61.6103C63.3419 61.9677 63.4897 62.392 63.5105 62.8317C63.5294 63.2564 63.355 63.7797 63.0062 64.83C62.3616 66.7675 62.0393 67.7382 61.5426 68.523C60.5037 70.1634 58.8752 71.3427 56.9926 71.818C56.0902 72.0417 55.074 72.0417 53.0379 72.0417H37.9622C35.9261 72.0417 34.9061 72.0417 34.0075 71.8142C32.1256 71.3398 30.4972 70.1619 29.4575 68.523C28.9608 67.7382 28.6385 66.7675 27.9939 64.83Z" stroke="#C68313" stroke-width="5.6875" stroke-linecap="round" stroke-linejoin="round"/>
</svg>
