<svg width="36" height="36" viewBox="0 0 36 36" fill="none" xmlns="http://www.w3.org/2000/svg">
<rect width="35.7143" height="35.7143" rx="17.8571" fill="#C68313"/>
<path d="M17.8569 13.8531C15.6401 13.8531 13.851 15.6422 13.851 17.859C13.851 20.0758 15.6401 21.8648 17.8569 21.8648C20.0737 21.8648 21.8628 20.0758 21.8628 17.859C21.8628 15.6422 20.0737 13.8531 17.8569 13.8531ZM17.8569 20.4625C16.4233 20.4625 15.2534 19.2926 15.2534 17.859C15.2534 16.4254 16.4233 15.2555 17.8569 15.2555C19.2905 15.2555 20.4604 16.4254 20.4604 17.859C20.4604 19.2926 19.2905 20.4625 17.8569 20.4625ZM22.0268 12.7555C21.5092 12.7555 21.0913 13.1734 21.0913 13.691C21.0913 14.2086 21.5092 14.6266 22.0268 14.6266C22.5444 14.6266 22.9624 14.2105 22.9624 13.691C22.9625 13.5681 22.9384 13.4464 22.8915 13.3328C22.8445 13.2192 22.7756 13.116 22.6887 13.0291C22.6018 12.9422 22.4986 12.8733 22.385 12.8264C22.2715 12.7794 22.1497 12.7553 22.0268 12.7555ZM25.6655 17.859C25.6655 16.7809 25.6753 15.7125 25.6147 14.6363C25.5542 13.3863 25.269 12.2769 24.3549 11.3629C23.4389 10.4469 22.3315 10.1637 21.0815 10.1031C20.0034 10.0426 18.935 10.0523 17.8589 10.0523C16.7807 10.0523 15.7124 10.0426 14.6362 10.1031C13.3862 10.1637 12.2768 10.4488 11.3628 11.3629C10.4467 12.2789 10.1635 13.3863 10.103 14.6363C10.0425 15.7144 10.0522 16.7828 10.0522 17.859C10.0522 18.9352 10.0425 20.0055 10.103 21.0816C10.1635 22.3316 10.4487 23.441 11.3628 24.3551C12.2788 25.2711 13.3862 25.5543 14.6362 25.6148C15.7143 25.6754 16.7827 25.6656 17.8589 25.6656C18.937 25.6656 20.0053 25.6754 21.0815 25.6148C22.3315 25.5543 23.4409 25.2691 24.3549 24.3551C25.271 23.4391 25.5542 22.3316 25.6147 21.0816C25.6772 20.0055 25.6655 18.9371 25.6655 17.859ZM23.9467 22.4644C23.8042 22.8199 23.6323 23.0855 23.3569 23.359C23.0815 23.6344 22.8178 23.8062 22.4624 23.9488C21.435 24.357 18.9956 24.2652 17.8569 24.2652C16.7182 24.2652 14.2768 24.357 13.2495 23.9508C12.894 23.8082 12.6284 23.6363 12.355 23.3609C12.0796 23.0855 11.9077 22.8219 11.7651 22.4664C11.3589 21.4371 11.4507 18.9977 11.4507 17.859C11.4507 16.7203 11.3589 14.2789 11.7651 13.2516C11.9077 12.8961 12.0796 12.6305 12.355 12.357C12.6303 12.0836 12.894 11.9098 13.2495 11.7672C14.2768 11.3609 16.7182 11.4527 17.8569 11.4527C18.9956 11.4527 21.437 11.3609 22.4643 11.7672C22.8198 11.9098 23.0854 12.0816 23.3589 12.357C23.6342 12.6324 23.8061 12.8961 23.9487 13.2516C24.355 14.2789 24.2632 16.7203 24.2632 17.859C24.2632 18.9977 24.3549 21.4371 23.9467 22.4644Z" fill="white"/>
</svg>
