<svg width="113" height="113" viewBox="0 0 113 113" fill="none" xmlns="http://www.w3.org/2000/svg">
<path d="M26.8285 49.4668H21.3178L18.0954 57.1538L14.8684 49.4668H9.3624L15.3635 63.7573L13.1452 69.0345H18.6559C21.4065 62.4777 24.0918 55.9816 26.8285 49.4668ZM96.8377 43.0688H102.769L97.4121 56.0143H91.4811L96.8377 43.0688ZM92.9382 57.2658C93.8238 57.2658 94.6731 57.6176 95.2993 58.2438C95.9255 58.8701 96.2773 59.7194 96.2773 60.605C96.2773 61.4905 95.9255 62.3399 95.2993 62.9661C94.6731 63.5923 93.8238 63.9441 92.9382 63.9441C92.0526 63.9441 91.2033 63.5923 90.5771 62.9661C89.9509 62.3399 89.5991 61.4905 89.5991 60.605C89.5991 59.7194 89.9509 58.8701 90.5771 58.2438C91.2033 57.6176 92.0526 57.2658 92.9382 57.2658ZM81.2863 49.0745C82.2886 49.0495 83.2856 49.2253 84.2189 49.5916C85.1521 49.9579 86.0026 50.5072 86.7203 51.2072C87.438 51.9072 88.0083 52.7438 88.3978 53.6676C88.7872 54.5914 88.9878 55.5838 88.9878 56.5863C88.9878 57.5889 88.7872 58.5813 88.3978 59.5051C88.0083 60.4289 87.438 61.2655 86.7203 61.9655C86.0026 62.6655 85.1521 63.2148 84.2189 63.5811C83.2856 63.9474 82.2886 64.1232 81.2863 64.0982C79.3265 64.0493 77.4634 63.2364 76.0945 61.833C74.7256 60.4296 73.9595 58.5468 73.9595 56.5863C73.9595 54.6259 74.7256 52.7431 76.0945 51.3397C77.4634 49.9363 79.3265 49.1234 81.2863 49.0745ZM81.2863 53.6512C80.5085 53.6512 79.7625 53.9602 79.2125 54.5102C78.6625 55.0602 78.3535 55.8062 78.3535 56.584C78.3535 57.3618 78.6625 58.1078 79.2125 58.6578C79.7625 59.2078 80.5085 59.5168 81.2863 59.5168C82.0642 59.5168 82.8101 59.2078 83.3601 58.6578C83.9101 58.1078 84.2191 57.3618 84.2191 56.584C84.2191 55.8062 83.9101 55.0602 83.3601 54.5102C82.8101 53.9602 82.0642 53.6512 81.2863 53.6512ZM65.1605 49.0745C66.1628 49.0495 67.1599 49.2253 68.0931 49.5916C69.0263 49.9579 69.8768 50.5072 70.5945 51.2072C71.3122 51.9072 71.8825 52.7438 72.272 53.6676C72.6614 54.5914 72.862 55.5838 72.862 56.5863C72.862 57.5889 72.6614 58.5813 72.272 59.5051C71.8825 60.4289 71.3122 61.2655 70.5945 61.9655C69.8768 62.6655 69.0263 63.2148 68.0931 63.5811C67.1599 63.9474 66.1628 64.1232 65.1605 64.0982C63.2007 64.0493 61.3376 63.2364 59.9687 61.833C58.5999 60.4296 57.8337 58.5468 57.8337 56.5863C57.8337 54.6259 58.5999 52.7431 59.9687 51.3397C61.3376 49.9363 63.2007 49.1234 65.1605 49.0745ZM65.1605 53.6512C64.3821 53.6512 63.6355 53.9604 63.0851 54.5109C62.5346 55.0613 62.2254 55.8079 62.2254 56.5863C62.2254 57.3648 62.5346 58.1114 63.0851 58.6618C63.6355 59.2123 64.3821 59.5215 65.1605 59.5215C65.939 59.5215 66.6855 59.2123 67.236 58.6618C67.7864 58.1114 68.0957 57.3648 68.0957 56.5863C68.0957 55.8079 67.7864 55.0613 67.236 54.5109C66.6855 53.9604 65.939 53.6512 65.1605 53.6512ZM42.9776 43.0221H47.9466V50.7464C47.9466 50.7464 48.8153 49.0745 51.6873 49.0745C54.5594 49.0745 56.4041 50.3354 56.4368 55.5099V63.9441H51.4679V55.5099C51.4648 55.2787 51.4162 55.0503 51.3249 54.8379C51.2336 54.6255 51.1013 54.4331 50.9357 54.2718C50.77 54.1105 50.5742 53.9834 50.3594 53.8977C50.1446 53.8121 49.9151 53.7696 49.6839 53.7726C49.4527 53.7757 49.2243 53.8243 49.0119 53.9156C48.7995 54.0069 48.6071 54.1392 48.4458 54.3048C48.2845 54.4705 48.1573 54.6663 48.0717 54.8811C47.986 55.0958 47.9435 55.3254 47.9466 55.5566V63.9441H42.9776V43.0221ZM36.22 49.4668H41.189V63.9441H36.2154V62.5804C35.1105 63.5571 33.6878 64.0983 32.2131 64.1028C28.5518 64.1028 25.5816 60.7404 25.5816 56.5934C25.5816 52.4463 28.5518 49.0745 32.2131 49.0745C33.7169 49.0745 35.1039 49.6443 36.2154 50.6016L36.22 49.4668ZM33.418 53.6559C32.6395 53.6559 31.893 53.9651 31.3425 54.5156C30.7921 55.066 30.4828 55.8126 30.4828 56.591C30.4828 57.3695 30.7921 58.116 31.3425 58.6665C31.893 59.2169 32.6395 59.5262 33.418 59.5262C34.1964 59.5262 34.943 59.2169 35.4934 58.6665C36.0439 58.116 36.3531 57.3695 36.3531 56.591C36.3531 55.8126 36.0439 55.066 35.4934 54.5156C34.943 53.9651 34.1964 53.6559 33.418 53.6559Z" fill="black" fill-opacity="0.7"/>
</svg>
