<svg width="36" height="36" viewBox="0 0 36 36" fill="none" xmlns="http://www.w3.org/2000/svg">
<rect width="35.7143" height="35.7143" rx="17.8571" fill="#C68313"/>
<g clip-path="url(#clip0_23_76)">
<path d="M23.8916 23.8976H21.353V19.9198C21.353 18.9712 21.3338 17.7505 20.0302 17.7505C18.7066 17.7505 18.5045 18.7826 18.5045 19.8498V23.8976H15.9659V15.7176H18.4045V16.8326H18.4373C18.778 16.1898 19.6066 15.5112 20.8445 15.5112C23.4166 15.5112 23.8923 17.2041 23.8923 19.4076L23.8916 23.8976ZM13.0988 14.5983C12.9051 14.5986 12.7132 14.5607 12.5342 14.4866C12.3552 14.4126 12.1926 14.3039 12.0557 14.1669C11.9187 14.0298 11.8102 13.8671 11.7364 13.688C11.6625 13.509 11.6247 13.3171 11.6252 13.1233C11.6253 12.8318 11.7119 12.5468 11.8741 12.3044C12.0362 12.062 12.2665 11.8732 12.536 11.7617C12.8054 11.6503 13.1018 11.6212 13.3878 11.6782C13.6738 11.7353 13.9364 11.8758 14.1425 12.0821C14.3485 12.2884 14.4888 12.5511 14.5456 12.8371C14.6023 13.1232 14.573 13.4196 14.4613 13.6889C14.3496 13.9582 14.1605 14.1884 13.918 14.3503C13.6754 14.5122 13.3903 14.5985 13.0988 14.5983ZM14.3716 23.8976H11.8259V15.7176H14.3716V23.8976ZM25.1616 9.28906H10.5516C9.85234 9.28906 9.28662 9.84192 9.28662 10.5241V25.1969C9.28662 25.8798 9.85234 26.4319 10.5516 26.4319H25.1595C25.858 26.4319 26.4295 25.8798 26.4295 25.1969V10.5241C26.4295 9.84192 25.858 9.28906 25.1595 9.28906H25.1616Z" fill="white"/>
</g>
<defs>
<clipPath id="clip0_23_76">
<rect width="17.1429" height="17.1429" fill="white" transform="translate(9.28394 9.28711)"/>
</clipPath>
</defs>
</svg>
