<svg width="228" height="39" viewBox="0 0 228 39" fill="none" xmlns="http://www.w3.org/2000/svg">
<rect x="11" width="39" height="39" rx="19.5" fill="#C68313"/>
<path d="M35.6679 11.4054C35.6679 11.1708 35.761 10.9459 35.9269 10.7801C36.0927 10.6142 36.3176 10.5211 36.5522 10.5211H39.4998C39.7344 10.5211 39.9593 10.6142 40.1251 10.7801C40.291 10.9459 40.3841 11.1708 40.3841 11.4054V14.353C40.3841 14.5876 40.291 14.8125 40.1251 14.9783C39.9593 15.1442 39.7344 15.2373 39.4998 15.2373C39.2653 15.2373 39.0404 15.1442 38.8745 14.9783C38.7087 14.8125 38.6155 14.5876 38.6155 14.353V13.5395L33.3451 18.8099C33.1793 18.9755 32.9545 19.0685 32.7202 19.0685C32.4858 19.0685 32.2611 18.9755 32.0953 18.8099L29.183 15.8976L24.2073 20.8733C24.1263 20.9602 24.0287 21.0299 23.9202 21.0782C23.8118 21.1265 23.6947 21.1525 23.5759 21.1546C23.4572 21.1567 23.3393 21.1349 23.2291 21.0904C23.119 21.0459 23.019 20.9797 22.935 20.8957C22.8511 20.8118 22.7849 20.7117 22.7404 20.6016C22.6959 20.4915 22.6741 20.3736 22.6762 20.2548C22.6783 20.1361 22.7042 20.019 22.7526 19.9105C22.8009 19.8021 22.8706 19.7044 22.9575 19.6235L28.5581 14.0229C28.7239 13.8573 28.9486 13.7643 29.183 13.7643C29.4173 13.7643 29.6421 13.8573 29.8079 14.0229L32.7202 16.9352L37.3657 12.2897H36.5522C36.3176 12.2897 36.0927 12.1965 35.9269 12.0307C35.761 11.8648 35.6679 11.6399 35.6679 11.4054ZM23.5824 24.6699C23.8169 24.6699 24.0418 24.7631 24.2077 24.9289C24.3735 25.0947 24.4667 25.3197 24.4667 25.5542V28.5019C24.4667 28.7364 24.3735 28.9613 24.2077 29.1272C24.0418 29.293 23.8169 29.3862 23.5824 29.3862C23.3479 29.3862 23.1229 29.293 22.9571 29.1272C22.7913 28.9613 22.6981 28.7364 22.6981 28.5019V25.5542C22.6981 25.3197 22.7913 25.0947 22.9571 24.9289C23.1229 24.7631 23.3479 24.6699 23.5824 24.6699ZM29.183 22.017C29.183 21.7825 29.0898 21.5575 28.924 21.3917C28.7581 21.2259 28.5332 21.1327 28.2987 21.1327C28.0641 21.1327 27.8392 21.2259 27.6734 21.3917C27.5075 21.5575 27.4144 21.7825 27.4144 22.017V28.5019C27.4144 28.7364 27.5075 28.9613 27.6734 29.1272C27.8392 29.293 28.0641 29.3862 28.2987 29.3862C28.5332 29.3862 28.7581 29.293 28.924 29.1272C29.0898 28.9613 29.183 28.7364 29.183 28.5019V22.017ZM33.0149 23.4908C33.2495 23.4908 33.4744 23.584 33.6402 23.7498C33.8061 23.9157 33.8992 24.1406 33.8992 24.3751V28.5019C33.8992 28.7364 33.8061 28.9613 33.6402 29.1272C33.4744 29.293 33.2495 29.3862 33.0149 29.3862C32.7804 29.3862 32.5555 29.293 32.3896 29.1272C32.2238 28.9613 32.1306 28.7364 32.1306 28.5019V24.3751C32.1306 24.1406 32.2238 23.9157 32.3896 23.7498C32.5555 23.584 32.7804 23.4908 33.0149 23.4908ZM38.6155 19.6588C38.6155 19.4243 38.5224 19.1994 38.3565 19.0336C38.1907 18.8677 37.9658 18.7745 37.7312 18.7745C37.4967 18.7745 37.2718 18.8677 37.1059 19.0336C36.9401 19.1994 36.8469 19.4243 36.8469 19.6588V28.5019C36.8469 28.7364 36.9401 28.9613 37.1059 29.1272C37.2718 29.293 37.4967 29.3862 37.7312 29.3862C37.9658 29.3862 38.1907 29.293 38.3565 29.1272C38.5224 28.9613 38.6155 28.7364 38.6155 28.5019V19.6588Z" fill="white"/>
<path d="M65.322 29.26C64.022 29.26 62.8 29.026 61.656 28.558C60.5293 28.0727 59.5327 27.3967 58.666 26.53C57.8167 25.6633 57.1493 24.6667 56.664 23.54C56.196 22.396 55.962 21.1653 55.962 19.848C55.962 18.5133 56.2047 17.2827 56.69 16.156C57.1753 15.012 57.8513 14.0153 58.718 13.166C59.5847 12.2993 60.5987 11.632 61.76 11.164C62.9213 10.6787 64.178 10.436 65.53 10.436C67.038 10.436 68.4247 10.722 69.69 11.294C70.9553 11.8487 72.004 12.6373 72.836 13.66L70.444 16.052C69.872 15.3067 69.1613 14.7347 68.312 14.336C67.4627 13.9373 66.5267 13.738 65.504 13.738C64.3427 13.738 63.3113 13.998 62.41 14.518C61.526 15.0207 60.8327 15.7313 60.33 16.65C59.8273 17.5513 59.576 18.6087 59.576 19.822C59.576 21.0353 59.8187 22.11 60.304 23.046C60.8067 23.9647 61.4827 24.684 62.332 25.204C63.1987 25.724 64.1867 25.984 65.296 25.984C66.44 25.984 67.4193 25.776 68.234 25.36C69.0487 24.9267 69.6727 24.3027 70.106 23.488C70.5393 22.656 70.756 21.642 70.756 20.446L73.07 22.032L65.088 21.954V18.886H74.396V19.38C74.396 21.564 74.006 23.3927 73.226 24.866C72.446 26.322 71.3713 27.4227 70.002 28.168C68.65 28.896 67.09 29.26 65.322 29.26ZM76.7443 29V16.442H80.1503V29H76.7443ZM80.1503 22.058L78.8243 21.174C78.9803 19.6313 79.431 18.418 80.1763 17.534C80.9217 16.6327 81.9963 16.182 83.4003 16.182C84.007 16.182 84.553 16.286 85.0383 16.494C85.5237 16.6847 85.9657 17.0053 86.3643 17.456L84.2323 19.9C84.0417 19.692 83.8077 19.536 83.5303 19.432C83.2703 19.328 82.967 19.276 82.6203 19.276C81.8923 19.276 81.2943 19.51 80.8263 19.978C80.3757 20.4287 80.1503 21.122 80.1503 22.058ZM93.1073 29.26C91.8419 29.26 90.6979 28.974 89.6753 28.402C88.6699 27.8127 87.8639 27.024 87.2573 26.036C86.6679 25.0307 86.3733 23.9127 86.3733 22.682C86.3733 21.4513 86.6679 20.3507 87.2573 19.38C87.8466 18.392 88.6526 17.612 89.6753 17.04C90.6979 16.4507 91.8333 16.156 93.0813 16.156C94.3639 16.156 95.5079 16.4507 96.5133 17.04C97.5359 17.612 98.3419 18.392 98.9313 19.38C99.5206 20.3507 99.8153 21.4513 99.8153 22.682C99.8153 23.9127 99.5206 25.0307 98.9313 26.036C98.3419 27.024 97.5359 27.8127 96.5133 28.402C95.5079 28.974 94.3726 29.26 93.1073 29.26ZM93.0813 26.088C93.7226 26.088 94.2859 25.9493 94.7713 25.672C95.2739 25.3773 95.6553 24.9787 95.9153 24.476C96.1926 23.956 96.3313 23.3667 96.3313 22.708C96.3313 22.0493 96.1926 21.4687 95.9153 20.966C95.6379 20.4633 95.2566 20.0733 94.7713 19.796C94.2859 19.5013 93.7226 19.354 93.0813 19.354C92.4573 19.354 91.9026 19.5013 91.4173 19.796C90.9319 20.0733 90.5506 20.4633 90.2733 20.966C89.9959 21.4687 89.8573 22.0493 89.8573 22.708C89.8573 23.3667 89.9959 23.956 90.2733 24.476C90.5506 24.9787 90.9319 25.3773 91.4173 25.672C91.9026 25.9493 92.4573 26.088 93.0813 26.088ZM105.083 29L100.377 16.442H103.809L106.877 25.568L105.837 25.594L108.983 16.442H111.453L114.599 25.594L113.559 25.568L116.627 16.442H120.059L115.379 29H112.909L109.737 20.316H110.699L107.527 29H105.083ZM123.557 29V11.216H126.963V29H123.557ZM120.619 19.432V16.442H129.901V19.432H120.619ZM140.267 29V21.798C140.267 21.0527 140.033 20.446 139.565 19.978C139.097 19.51 138.49 19.276 137.745 19.276C137.259 19.276 136.826 19.38 136.445 19.588C136.063 19.796 135.76 20.0907 135.535 20.472C135.327 20.8533 135.223 21.2953 135.223 21.798L133.897 21.122C133.897 20.134 134.105 19.276 134.521 18.548C134.937 17.8027 135.509 17.222 136.237 16.806C136.982 16.39 137.831 16.182 138.785 16.182C139.738 16.182 140.579 16.39 141.307 16.806C142.052 17.222 142.633 17.794 143.049 18.522C143.465 19.25 143.673 20.0907 143.673 21.044V29H140.267ZM131.817 29V10.202H135.223V29H131.817Z" fill="black"/>
<path d="M152.084 29.26C150.611 29.26 149.346 29.0087 148.288 28.506C147.248 28.0033 146.304 27.2493 145.454 26.244L147.794 23.904C148.332 24.6147 148.956 25.1693 149.666 25.568C150.377 25.9493 151.244 26.14 152.266 26.14C153.185 26.14 153.913 25.958 154.45 25.594C155.005 25.23 155.282 24.7273 155.282 24.086C155.282 23.5313 155.126 23.0807 154.814 22.734C154.502 22.3873 154.086 22.0927 153.566 21.85C153.064 21.6073 152.5 21.3907 151.876 21.2C151.27 20.992 150.654 20.758 150.03 20.498C149.424 20.238 148.86 19.9173 148.34 19.536C147.838 19.1373 147.43 18.6347 147.118 18.028C146.806 17.404 146.65 16.624 146.65 15.688C146.65 14.5787 146.919 13.634 147.456 12.854C147.994 12.074 148.73 11.476 149.666 11.06C150.602 10.644 151.66 10.436 152.838 10.436C154.086 10.436 155.213 10.67 156.218 11.138C157.224 11.606 158.047 12.2127 158.688 12.958L156.348 15.298C155.811 14.7087 155.256 14.2753 154.684 13.998C154.13 13.7207 153.497 13.582 152.786 13.582C151.972 13.582 151.33 13.738 150.862 14.05C150.394 14.362 150.16 14.8127 150.16 15.402C150.16 15.9047 150.316 16.312 150.628 16.624C150.94 16.936 151.348 17.2047 151.85 17.43C152.37 17.6553 152.934 17.872 153.54 18.08C154.164 18.288 154.78 18.522 155.386 18.782C156.01 19.042 156.574 19.38 157.076 19.796C157.596 20.212 158.012 20.7493 158.324 21.408C158.636 22.0493 158.792 22.8467 158.792 23.8C158.792 25.4987 158.194 26.8333 156.998 27.804C155.802 28.7747 154.164 29.26 152.084 29.26ZM168.187 29.26C167.286 29.26 166.471 29.078 165.743 28.714C165.015 28.3327 164.434 27.8213 164.001 27.18C163.568 26.5387 163.334 25.802 163.299 24.97V20.524C163.334 19.692 163.568 18.9553 164.001 18.314C164.452 17.6553 165.032 17.1353 165.743 16.754C166.471 16.3727 167.286 16.182 168.187 16.182C169.348 16.182 170.388 16.468 171.307 17.04C172.226 17.612 172.945 18.392 173.465 19.38C174.002 20.368 174.271 21.486 174.271 22.734C174.271 23.9647 174.002 25.074 173.465 26.062C172.945 27.05 172.226 27.83 171.307 28.402C170.388 28.974 169.348 29.26 168.187 29.26ZM161.219 34.252V16.442H164.625V19.744L164.053 22.786L164.599 25.828V34.252H161.219ZM167.589 26.114C168.213 26.114 168.768 25.9753 169.253 25.698C169.738 25.4033 170.111 25.0047 170.371 24.502C170.648 23.982 170.787 23.384 170.787 22.708C170.787 22.0493 170.648 21.4687 170.371 20.966C170.111 20.446 169.738 20.0473 169.253 19.77C168.768 19.4753 168.213 19.328 167.589 19.328C166.982 19.328 166.436 19.4753 165.951 19.77C165.466 20.0473 165.084 20.446 164.807 20.966C164.547 21.4687 164.417 22.0493 164.417 22.708C164.417 23.384 164.547 23.982 164.807 24.502C165.084 25.0047 165.457 25.4033 165.925 25.698C166.41 25.9753 166.965 26.114 167.589 26.114ZM181.756 29.26C180.612 29.26 179.581 28.974 178.662 28.402C177.743 27.83 177.024 27.05 176.504 26.062C175.984 25.074 175.724 23.9647 175.724 22.734C175.724 21.486 175.984 20.368 176.504 19.38C177.024 18.392 177.743 17.612 178.662 17.04C179.581 16.468 180.612 16.182 181.756 16.182C182.657 16.182 183.463 16.364 184.174 16.728C184.885 17.092 185.448 17.6033 185.864 18.262C186.297 18.9033 186.531 19.6313 186.566 20.446V24.97C186.531 25.802 186.297 26.5387 185.864 27.18C185.448 27.8213 184.885 28.3327 184.174 28.714C183.463 29.078 182.657 29.26 181.756 29.26ZM182.38 26.114C183.333 26.114 184.105 25.802 184.694 25.178C185.283 24.5367 185.578 23.7133 185.578 22.708C185.578 22.0493 185.439 21.4687 185.162 20.966C184.902 20.446 184.529 20.0473 184.044 19.77C183.576 19.4753 183.021 19.328 182.38 19.328C181.756 19.328 181.201 19.4753 180.716 19.77C180.248 20.0473 179.875 20.446 179.598 20.966C179.338 21.4687 179.208 22.0493 179.208 22.708C179.208 23.384 179.338 23.982 179.598 24.502C179.875 25.0047 180.248 25.4033 180.716 25.698C181.201 25.9753 181.756 26.114 182.38 26.114ZM185.396 29V25.62L185.942 22.552L185.396 19.536V16.442H188.776V29H185.396ZM197.717 29.26C196.435 29.26 195.282 28.974 194.259 28.402C193.237 27.83 192.431 27.05 191.841 26.062C191.252 25.074 190.957 23.9647 190.957 22.734C190.957 21.486 191.252 20.368 191.841 19.38C192.431 18.392 193.237 17.612 194.259 17.04C195.299 16.4507 196.452 16.156 197.717 16.156C198.705 16.156 199.615 16.338 200.447 16.702C201.279 17.066 201.999 17.586 202.605 18.262L200.421 20.472C200.092 20.108 199.693 19.8307 199.225 19.64C198.775 19.4493 198.272 19.354 197.717 19.354C197.093 19.354 196.53 19.5013 196.027 19.796C195.542 20.0733 195.152 20.4633 194.857 20.966C194.58 21.4513 194.441 22.032 194.441 22.708C194.441 23.3667 194.58 23.956 194.857 24.476C195.152 24.9787 195.542 25.3773 196.027 25.672C196.53 25.9493 197.093 26.088 197.717 26.088C198.289 26.088 198.801 25.9927 199.251 25.802C199.719 25.594 200.118 25.2993 200.447 24.918L202.657 27.128C202.016 27.8213 201.279 28.35 200.447 28.714C199.615 29.078 198.705 29.26 197.717 29.26ZM210.313 29.26C208.995 29.26 207.825 28.9827 206.803 28.428C205.78 27.856 204.965 27.076 204.359 26.088C203.769 25.1 203.475 23.9733 203.475 22.708C203.475 21.46 203.761 20.3507 204.333 19.38C204.922 18.392 205.719 17.612 206.725 17.04C207.73 16.4507 208.848 16.156 210.079 16.156C211.292 16.156 212.358 16.4333 213.277 16.988C214.213 17.5253 214.941 18.2707 215.461 19.224C215.998 20.16 216.267 21.226 216.267 22.422C216.267 22.6473 216.249 22.8813 216.215 23.124C216.197 23.3493 216.154 23.6093 216.085 23.904L205.529 23.93V21.382L214.499 21.356L213.121 22.422C213.086 21.6767 212.947 21.0527 212.705 20.55C212.479 20.0473 212.141 19.666 211.691 19.406C211.257 19.1287 210.72 18.99 210.079 18.99C209.403 18.99 208.813 19.146 208.311 19.458C207.808 19.7527 207.418 20.1773 207.141 20.732C206.881 21.2693 206.751 21.9107 206.751 22.656C206.751 23.4187 206.889 24.086 207.167 24.658C207.461 25.2127 207.877 25.646 208.415 25.958C208.952 26.2527 209.576 26.4 210.287 26.4C210.928 26.4 211.509 26.296 212.029 26.088C212.549 25.8627 212.999 25.5333 213.381 25.1L215.383 27.102C214.776 27.8127 214.031 28.35 213.147 28.714C212.28 29.078 211.335 29.26 210.313 29.26Z" fill="#C68313"/>
</svg>
