<svg width="99" height="25" viewBox="0 0 99 25" fill="none" xmlns="http://www.w3.org/2000/svg">
<g clip-path="url(#clip0_9_37)">
<path d="M30.1938 9.71095C31.3249 9.71095 32.2417 8.79375 32.2417 7.6625C32.2417 6.53105 31.3249 5.61405 30.1938 5.61405C29.0628 5.61405 28.146 6.53105 28.146 7.6625C28.146 8.79394 29.0628 9.71095 30.1938 9.71095ZM97.7794 16.7098C97.4678 16.4907 97.2274 16.4544 97.0278 16.8798C93.5883 24.3294 87.7921 20.612 88.3679 20.9391C89.6535 20.351 93.0349 17.6392 92.5238 13.8947C92.2135 11.6063 90.2493 10.5913 88.1646 10.9547C84.5255 11.5892 83.1868 15.5143 83.8683 18.9893C83.9876 19.5861 84.2007 20.0783 84.4136 20.5604C80.3013 23.9046 78.6682 17.5668 78.4829 16.8094C78.4755 16.7689 81.6581 14.1161 82.5433 7.79471C83.4711 1.16953 81.3576 -0.0368032 79.1964 0.000834385C75.1972 0.0705122 74.1165 8.42625 75.5684 15.3902C75.4468 15.4218 74.8809 15.7353 73.9716 15.7704C73.3173 13.7115 70.5215 11.9069 69.7897 12.6023C67.9584 14.3419 70.2339 17.743 71.8349 18.0097C70.8731 23.9335 64.8583 22.4664 65.9779 15.0449C67.9366 11.4075 69.4263 5.99911 69.1605 2.7341C69.0663 1.57814 68.2117 0.0294004 66.2788 0.10622C62.5612 0.253296 62.157 8.61135 62.5929 14.5434C62.5712 14.3973 62.3643 15.2641 60.8409 15.6951C60.4805 13.6949 57.2599 11.6872 56.5017 12.6525C55.0825 14.4591 57.5421 17.6803 58.7071 17.9049C57.7453 23.8285 51.7306 22.3614 52.8503 14.9399C54.809 11.3027 56.2985 5.8943 56.0327 2.62929C55.9385 1.47314 55.0841 -0.0755989 53.151 0.0010274C49.4334 0.148297 49.0292 8.50635 49.4651 14.4384C49.4433 14.29 49.2315 15.1854 47.6459 15.6092C47.5928 13.0142 44.3604 11.8242 43.5839 12.6523C42.2 14.1282 43.9009 17.1566 45.4743 17.9049C44.5125 23.8285 38.4979 22.3614 39.6175 14.9399C41.5762 11.3027 43.0659 5.8943 42.7999 2.62929C42.7059 1.47314 41.8513 -0.0755989 39.9182 0.0010274C36.2008 0.148297 35.9016 8.92654 36.3375 14.8584C35.113 20.1047 31.0066 26.6564 31.5401 13.532C31.5928 12.6114 31.6503 12.2618 31.1913 11.9171C30.8474 11.6492 30.0653 11.7781 29.6378 11.7887C29.1182 11.8096 28.9879 12.1136 28.8731 12.5731C28.6055 13.7598 28.5575 14.9101 28.5193 16.4797C28.4942 17.214 28.4353 17.5566 28.1525 18.5577C27.8702 19.5587 26.2591 21.3882 25.377 21.0823C24.1533 20.6616 24.5548 17.207 24.7841 14.8335C24.9752 12.9578 24.3633 12.1155 22.7956 11.8092C21.8779 11.6179 21.3202 11.6473 20.3644 11.346C19.4606 11.0611 19.2562 9.35136 17.3283 9.92114C16.2739 10.233 16.9518 12.4672 16.6984 14.123C15.4525 22.2684 12.8601 22.4921 11.6574 18.5353C17.074 5.26932 13.2243 0.039437 10.9709 0.039437C8.62383 0.039437 5.94095 1.65612 7.07703 12.0001C6.52462 11.8389 6.35477 11.7521 5.75006 11.7521C2.33006 11.7521 0 14.5168 0 17.9273C0 21.3379 2.33025 24.1028 5.75025 24.1028C7.76917 24.1028 9.18666 23.1846 10.2602 21.7642C10.9606 22.7673 11.8136 24.1182 13.3733 24.0574C18.0224 23.8764 19.3745 14.3398 19.5341 13.8078C20.0311 13.8845 20.5013 14.0294 20.9603 14.1061C21.725 14.2209 21.7806 14.5235 21.7632 15.2927C21.5606 21.7787 22.7574 24.0497 25.4724 24.0497C26.985 24.0497 28.3332 22.5635 29.262 21.5008C29.9557 22.9325 31.0611 24.0059 32.544 24.0495C36.1373 24.1389 37.5131 18.4116 37.3876 19.1653C37.2892 19.7567 38.5534 24.0173 42.2527 24.0327C46.8351 24.052 47.6868 19.0128 47.7884 18.1688C47.8067 18.0182 47.8011 18.0009 47.7884 18.1688L47.7849 18.2199C49.2396 17.9493 49.9902 17.1694 49.9902 17.1694C49.9902 17.1694 51.1584 24.1111 55.4853 24.0329C59.9787 23.9515 60.826 19.3964 60.9372 18.5081C60.9605 18.322 60.9519 18.2973 60.9372 18.5081L60.9355 18.5342C62.6635 17.9055 63.118 17.2746 63.118 17.2746C63.118 17.2746 64.0464 24.0783 68.6131 24.1377C72.6826 24.191 74.1908 20.0236 74.1997 18.2794C74.8861 18.2867 76.1557 17.8721 76.126 17.8486C76.126 17.8486 77.6166 23.7972 81.7794 24.1028C83.7338 24.2462 85.1999 23.003 86.0357 22.4359C87.9998 24.0265 94.54 26.0582 98.6697 19.0566C99.2526 18.0518 97.9994 16.8648 97.7794 16.7098ZM5.58523 21.7932C3.58985 21.7932 2.31037 19.9482 2.31037 17.9588C2.31037 15.9696 3.48486 14.1246 5.48023 14.1246C6.37812 14.1246 6.87764 14.2234 7.57693 14.8316C7.70374 15.3313 8.06313 16.484 8.238 17.0074C8.47232 17.7079 8.75103 18.3041 9.03206 18.953C8.63059 20.6174 7.31443 21.7932 5.58523 21.7932ZM10.4476 14.8901C10.3646 14.7579 10.382 14.8391 10.2892 14.7142C9.92339 13.7193 9.21851 11.4984 9.13686 8.97595C9.0446 6.12244 9.52019 2.77772 10.9222 2.77772C11.8722 2.77772 12.8819 9.55634 10.4474 14.8901M38.5428 11.9169C38.3178 10.2236 38.306 2.67484 40.1182 2.88272C41.1188 3.28804 39.4838 10.4112 38.5428 11.9169ZM51.7756 11.9169C51.5506 10.2236 51.5388 2.67484 53.351 2.88272C54.3516 3.28804 52.7166 10.4112 51.7756 11.9169ZM64.9034 12.0221C64.6782 10.3286 64.6666 2.77984 66.4786 2.98772C67.4792 3.39304 65.8442 10.5164 64.9034 12.0221ZM79.3964 2.44091C81.0532 2.26913 80.9849 9.50442 77.6593 14.0723C77.2304 12.4212 76.5728 3.00779 79.3964 2.44072M86.3603 18.0096C85.8282 15.3215 87.2032 13.556 88.6207 13.3624C89.1162 13.2832 89.8342 13.6042 89.9774 14.2043C90.2129 15.3352 89.9432 17.0126 86.7707 19.141C86.7753 19.1591 86.479 18.6083 86.3605 18.0096" fill="black" fill-opacity="0.7"/>
</g>
<defs>
<clipPath id="clip0_9_37">
<rect width="98.8228" height="24.3197" fill="white"/>
</clipPath>
</defs>
</svg>
