<svg width="40" height="33" viewBox="0 0 40 33" fill="none" xmlns="http://www.w3.org/2000/svg">
<path d="M16 2.87992L7.68 19.3599L4.64 19.9999C4.96 19.1466 5.44 18.4533 6.08 17.9199C6.82666 17.2799 7.73333 16.9599 8.8 16.9599C10.6133 16.9599 12.2133 17.6533 13.6 19.0399C15.0933 20.4266 15.84 22.1866 15.84 24.3199C15.84 26.4533 15.04 28.3199 13.44 29.9199C11.84 31.5199 9.97333 32.3199 7.84 32.3199C5.70666 32.3199 3.84 31.5732 2.24 30.0799C0.746662 28.4799 -4.29153e-06 26.5599 -4.29153e-06 24.3199C-4.29153e-06 23.3599 0.159996 22.2933 0.479995 21.1199C0.799995 19.8399 1.38666 18.2399 2.24 16.3199L10.72 -8.01086e-05L16 2.87992ZM39.04 2.87992L30.72 19.3599L27.68 19.9999C28 19.1466 28.48 18.4533 29.12 17.9199C29.8667 17.2799 30.7733 16.9599 31.84 16.9599C33.6533 16.9599 35.2533 17.6533 36.64 19.0399C38.1333 20.4266 38.88 22.1866 38.88 24.3199C38.88 26.4533 38.08 28.3199 36.48 29.9199C34.88 31.5199 33.0133 32.3199 30.88 32.3199C28.7467 32.3199 26.88 31.5732 25.28 30.0799C23.7867 28.4799 23.04 26.5599 23.04 24.3199C23.04 23.3599 23.2 22.2933 23.52 21.1199C23.84 19.8399 24.4267 18.2399 25.28 16.3199L33.76 -8.01086e-05L39.04 2.87992Z" fill="#C68313"/>
</svg>
